<svg width="105" height="42" viewBox="0 0 105 42" fill="none" xmlns="http://www.w3.org/2000/svg">
<path d="M12.2497 12.288C11.2897 12.288 10.5004 12.0106 9.88172 11.456C9.28438 10.88 8.98572 10.176 8.98572 9.34398C8.98572 8.49065 9.28438 7.78665 9.88172 7.23198C10.5004 6.65598 11.2897 6.36798 12.2497 6.36798C13.1884 6.36798 13.9564 6.65598 14.5537 7.23198C15.1724 7.78665 15.4817 8.49065 15.4817 9.34398C15.4817 10.176 15.1724 10.88 14.5537 11.456C13.9564 12.0106 13.1884 12.288 12.2497 12.288ZM14.9697 14.144V32H9.49772V14.144H14.9697Z" fill="white"/>
<path d="M29.9752 13.952C32.0659 13.952 33.7299 14.6346 34.9672 16C36.2259 17.344 36.8552 19.2 36.8552 21.568V32H31.4152V22.304C31.4152 21.1093 31.1059 20.1813 30.4872 19.52C29.8686 18.8586 29.0366 18.528 27.9912 18.528C26.9459 18.528 26.1139 18.8586 25.4952 19.52C24.8766 20.1813 24.5672 21.1093 24.5672 22.304V32H19.0952V14.144H24.5672V16.512C25.1219 15.7226 25.8686 15.104 26.8072 14.656C27.7459 14.1866 28.8019 13.952 29.9752 13.952Z" fill="white"/>
<path d="M48.0817 32.256C46.5244 32.256 45.1377 31.9893 43.9217 31.456C42.7057 30.9226 41.7457 30.1973 41.0417 29.28C40.3377 28.3413 39.943 27.296 39.8577 26.144H45.2657C45.3297 26.7626 45.6177 27.264 46.1297 27.648C46.6417 28.032 47.271 28.224 48.0177 28.224C48.7004 28.224 49.223 28.096 49.5857 27.84C49.9697 27.5626 50.1617 27.2106 50.1617 26.784C50.1617 26.272 49.8951 25.8986 49.3617 25.664C48.8284 25.408 47.9644 25.1307 46.7697 24.832C45.4897 24.5333 44.4231 24.224 43.5697 23.904C42.7164 23.5626 41.9804 23.04 41.3617 22.336C40.7431 21.6106 40.4337 20.64 40.4337 19.424C40.4337 18.4 40.711 17.472 41.2657 16.64C41.8417 15.7866 42.6737 15.1146 43.7617 14.624C44.8711 14.1333 46.183 13.888 47.6977 13.888C49.9377 13.888 51.6977 14.4426 52.9777 15.552C54.2791 16.6613 55.0257 18.1333 55.2177 19.968H50.1617C50.0764 19.3493 49.7991 18.8586 49.3297 18.496C48.8817 18.1333 48.2844 17.952 47.5377 17.952C46.8977 17.952 46.4071 18.08 46.0657 18.336C45.7244 18.5706 45.5537 18.9013 45.5537 19.328C45.5537 19.84 45.8204 20.224 46.3537 20.48C46.9084 20.736 47.7617 20.992 48.9137 21.248C50.2364 21.5893 51.3137 21.9306 52.1457 22.272C52.9777 22.592 53.703 23.1253 54.3217 23.872C54.9617 24.5973 55.2924 25.5786 55.3137 26.816C55.3137 27.8613 55.0151 28.8 54.4177 29.632C53.8417 30.4426 52.9991 31.0826 51.8897 31.552C50.8017 32.0213 49.5324 32.256 48.0817 32.256Z" fill="white"/>
<path d="M68.7735 27.36V32H65.9895C64.0055 32 62.4588 31.52 61.3495 30.56C60.2401 29.5786 59.6855 27.9893 59.6855 25.792V18.688H57.5095V14.144H59.6855V9.79198H65.1575V14.144H68.7415V18.688H65.1575V25.856C65.1575 26.3893 65.2855 26.7733 65.5415 27.008C65.7975 27.2426 66.2241 27.36 66.8215 27.36H68.7735Z" fill="white"/>
<path d="M80.1095 32.256C78.3601 32.256 76.7815 31.8826 75.3735 31.136C73.9868 30.3893 72.8881 29.3227 72.0775 27.936C71.2881 26.5493 70.8935 24.928 70.8935 23.072C70.8935 21.2373 71.2988 19.6266 72.1095 18.24C72.9201 16.832 74.0295 15.7546 75.4375 15.008C76.8455 14.2613 78.4241 13.888 80.1735 13.888C81.9228 13.888 83.5015 14.2613 84.9095 15.008C86.3175 15.7546 87.4268 16.832 88.2375 18.24C89.0481 19.6266 89.4535 21.2373 89.4535 23.072C89.4535 24.9066 89.0375 26.528 88.2055 27.936C87.3948 29.3227 86.2748 30.3893 84.8455 31.136C83.4375 31.8826 81.8588 32.256 80.1095 32.256ZM80.1095 27.52C81.1548 27.52 82.0401 27.136 82.7655 26.368C83.5121 25.6 83.8855 24.5013 83.8855 23.072C83.8855 21.6426 83.5228 20.544 82.7975 19.776C82.0935 19.008 81.2188 18.624 80.1735 18.624C79.1068 18.624 78.2215 19.008 77.5175 19.776C76.8135 20.5226 76.4615 21.6213 76.4615 23.072C76.4615 24.5013 76.8028 25.6 77.4855 26.368C78.1895 27.136 79.0641 27.52 80.1095 27.52Z" fill="white"/>
<path d="M97.9885 17.12C98.6285 16.1386 99.4285 15.3706 100.388 14.816C101.348 14.24 102.415 13.952 103.588 13.952V19.744H102.084C100.719 19.744 99.6951 20.0426 99.0125 20.64C98.3298 21.216 97.9885 22.24 97.9885 23.712V32H92.5165V14.144H97.9885V17.12Z" fill="white"/>
<path fill-rule="evenodd" clip-rule="evenodd" d="M2.75 6.42432C4.26878 6.42432 5.5 7.65553 5.5 9.17432V30.7089C5.5 33.6084 7.85051 35.9589 10.75 35.9589H34.1262C35.645 35.9589 36.8762 37.1901 36.8762 38.7089C36.8762 40.2276 35.645 41.4589 34.1262 41.4589H10.75C4.81294 41.4589 0 36.6459 0 30.7089V9.17432C0 7.65553 1.23122 6.42432 2.75 6.42432Z" fill="#E29547"/>
</svg>
